<svg xmlns="http://www.w3.org/2000/svg" xmlns:xlink="http://www.w3.org/1999/xlink" version="1.1" viewBox="0 0 400 400" width="400" height="400" preserveAspectRatio="xMidYMid meet">
   <path fill="#000000" d="M143.90,311.17 L139.74,303.90 L136.62,297.66 L135.58,295.58 L134.55,293.51 L133.51,291.43 L133.51,291.43 L133.51,290.39 L133.51,290.39 L132.47,290.39 L132.47,289.35 L132.47,289.35 L132.47,289.35 L131.43,289.35 L130.39,289.35 L129.35,289.35 L128.31,289.35 L127.27,288.31 L126.23,288.31 L125.19,288.31 L123.12,287.27 L122.08,287.27 L122.08,287.27 L121.04,287.27 L118.96,286.23 L117.92,286.23 L116.88,286.23 L116.88,285.19 L115.84,285.19 L114.81,284.16 L113.77,284.16 L112.73,283.12 L112.73,283.12 L111.69,282.08 L111.69,282.08 L110.65,281.04 L110.65,281.04 L110.65,280.00 L109.61,280.00 L109.61,278.96 L109.61,277.92 L108.57,276.88 L108.57,276.88 L107.53,274.81 L107.53,274.81 L106.49,273.77 L106.49,272.73 L105.45,271.69 L105.45,271.69 L104.42,270.65 L104.42,270.65 L103.38,269.61 L102.34,268.57 L102.34,268.57 L101.30,267.53 L100.26,267.53 L100.26,267.53 L99.22,266.49 L98.18,266.49 L98.18,266.49 L97.14,265.45 L95.06,265.45 L95.06,265.45 L94.03,265.45 L92.99,265.45 L92.99,264.42 L91.95,264.42 L90.91,264.42 L90.91,264.42 L90.91,264.42 L89.87,264.42 L89.87,264.42 L88.83,264.42 L88.83,264.42 L87.79,264.42 L86.75,264.42 L86.75,264.42 L86.75,264.42 L86.75,264.42 L85.71,264.42 L85.71,263.38 L85.71,263.38 L84.68,263.38 L84.68,263.38 L84.68,263.38 L83.64,263.38 L83.64,263.38 L83.64,263.38 L82.60,263.38 L81.56,263.38 L81.56,263.38 L80.52,262.34 L79.48,262.34 L78.44,262.34 L78.44,262.34 L77.40,262.34 L76.36,262.34 L76.36,262.34 L75.32,261.30 L75.32,261.30 L74.29,261.30 L74.29,261.30 L73.25,261.30 L73.25,261.30 L73.25,261.30 L73.25,261.30 L72.21,261.30 L72.21,261.30 L71.17,261.30 L71.17,261.30 L70.13,261.30 L70.13,261.30 L70.13,261.30 L69.09,261.30 L69.09,261.30 L69.09,261.30 L68.05,261.30 L68.05,261.30 L68.05,261.30 L67.01,261.30 L67.01,261.30 L65.97,261.30 L64.94,261.30 L63.90,261.30 L62.86,261.30 L62.86,260.26 L61.82,260.26 L60.78,260.26 L59.74,259.22 L57.66,259.22 L56.62,258.18 L54.55,257.14 L52.47,256.10 L51.43,255.06 L49.35,254.03 L47.27,252.99 L45.19,252.99 L44.16,251.95 L43.12,250.91 L42.08,250.91 L41.04,249.87 L41.04,249.87 L40.00,248.83 L40.00,248.83 L40.00,248.83 L40.00,248.83 L40.00,249.87 L40.00,248.83 L40.00,248.83 L40.00,248.83 L40.00,247.79 L40.00,247.79 L40.00,247.79 L40.00,246.75 L40.00,245.71 L40.00,245.71 L40.00,244.68 L40.00,244.68 L40.00,243.64 L40.00,242.60 L40.00,242.60 L40.00,241.56 L40.00,240.52 L40.00,240.52 L40.00,239.48 L40.00,238.44 L40.00,237.40 L40.00,236.36 L40.00,236.36 L40.00,235.32 L40.00,234.29 L40.00,234.29 L40.00,233.25 L40.00,233.25 L40.00,232.21 L40.00,232.21 L41.04,231.17 L41.04,231.17 L41.04,230.13 L41.04,230.13 L41.04,230.13 L41.04,229.09 L41.04,229.09 L41.04,229.09 L41.04,228.05 L41.04,228.05 L41.04,227.01 L41.04,227.01 L41.04,227.01 L41.04,227.01 L41.04,225.97 L41.04,225.97 L41.04,225.97 L41.04,224.94 L41.04,224.94 L41.04,224.94 L41.04,223.90 L41.04,223.90 L41.04,222.86 L41.04,222.86 L41.04,221.82 L41.04,221.82 L41.04,220.78 L41.04,220.78 L41.04,219.74 L42.08,219.74 L42.08,218.70 L42.08,218.70 L42.08,218.70 L42.08,217.66 L42.08,217.66 L42.08,216.62 L42.08,216.62 L42.08,215.58 L42.08,215.58 L42.08,215.58 L42.08,215.58 L42.08,214.55 L42.08,214.55 L42.08,214.55 L42.08,214.55 L42.08,213.51 L43.12,213.51 L43.12,212.47 L43.12,212.47 L43.12,211.43 L43.12,211.43 L44.16,211.43 L44.16,210.39 L44.16,210.39 L44.16,210.39 L45.19,209.35 L45.19,209.35 L46.23,208.31 L47.27,208.31 L47.27,207.27 L48.31,207.27 L49.35,206.23 L50.39,206.23 L50.39,205.19 L51.43,205.19 L52.47,205.19 L53.51,204.16 L53.51,204.16 L54.55,204.16 L54.55,204.16 L55.58,203.12 L55.58,203.12 L56.62,203.12 L56.62,203.12 L56.62,202.08 L57.66,202.08 L57.66,202.08 L58.70,201.04 L59.74,201.04 L59.74,200.00 L60.78,200.00 L62.86,198.96 L63.90,197.92 L63.90,197.92 L65.97,196.88 L67.01,196.88 L68.05,194.81 L70.13,194.81 L70.13,193.77 L72.21,192.73 L72.21,191.69 L73.25,190.65 L74.29,189.61 L75.32,189.61 L76.36,188.57 L76.36,188.57 L77.40,187.53 L77.40,187.53 L78.44,186.49 L78.44,186.49 L79.48,186.49 L80.52,185.45 L81.56,185.45 L82.60,185.45 L83.64,184.42 L84.68,184.42 L85.71,184.42 L86.75,183.38 L87.79,182.34 L89.87,182.34 L89.87,182.34 L90.91,182.34 L91.95,181.30 L92.99,181.30 L92.99,181.30 L95.06,181.30 L95.06,180.26 L96.10,180.26 L96.10,180.26 L97.14,180.26 L97.14,179.22 L98.18,179.22 L99.22,179.22 L99.22,178.18 L100.26,178.18 L100.26,178.18 L101.30,178.18 L101.30,178.18 L101.30,177.14 L102.34,177.14 L102.34,177.14 L103.38,176.10 L104.42,176.10 L104.42,176.10 L105.45,176.10 L106.49,176.10 L107.53,175.06 L107.53,175.06 L109.61,175.06 L109.61,175.06 L110.65,175.06 L111.69,174.03 L112.73,174.03 L113.77,174.03 L114.81,172.99 L115.84,172.99 L117.92,171.95 L118.96,171.95 L120.00,171.95 L122.08,170.91 L123.12,169.87 L125.19,169.87 L126.23,169.87 L127.27,168.83 L129.35,168.83 L130.39,167.79 L132.47,167.79 L133.51,166.75 L134.55,166.75 L135.58,166.75 L136.62,166.75 L136.62,166.75 L137.66,165.71 L137.66,165.71 L138.70,165.71 L138.70,165.71 L138.70,165.71 L138.70,165.71 L139.74,165.71 L139.74,165.71 L140.78,165.71 L140.78,165.71 L140.78,165.71 L140.78,165.71 L141.82,165.71 L141.82,165.71 L141.82,165.71 L141.82,165.71 L142.86,165.71 L142.86,165.71 L144.94,165.71 L147.01,165.71 L148.05,165.71 L150.13,164.68 L151.17,164.68 L153.25,164.68 L155.32,164.68 L156.36,164.68 L158.44,164.68 L160.52,164.68 L162.60,164.68 L164.68,163.64 L166.75,163.64 L168.83,163.64 L170.91,163.64 L171.95,163.64 L174.03,163.64 L177.14,163.64 L178.18,163.64 L180.26,163.64 L181.30,163.64 L181.30,163.64 L182.34,163.64 L182.34,163.64 L182.34,163.64 L183.38,163.64 L183.38,164.68 L183.38,164.68 L183.38,164.68 L183.38,165.71 L184.42,165.71 L184.42,167.79 L185.45,168.83 L186.49,169.87 L188.57,174.03 L190.65,175.06 L191.69,177.14 L193.77,180.26 L194.81,182.34 L195.84,183.38 L196.88,185.45 L196.88,186.49 L197.92,188.57 L197.92,189.61 L197.92,190.65 L198.96,191.69 L200.00,192.73 L200.00,193.77 L201.04,194.81 L201.04,195.84 L202.08,196.88 L203.12,198.96 L204.16,200.00 L204.16,201.04 L205.19,203.12 L206.23,203.12 L206.23,205.19 L206.23,206.23 L207.27,207.27 L207.27,208.31 L207.27,209.35 L207.27,210.39 L208.31,212.47 L208.31,213.51 L208.31,215.58 L209.35,216.62 L209.35,217.66 L209.35,218.70 L209.35,219.74 L209.35,221.82 L209.35,222.86 L209.35,222.86 L209.35,223.90 L209.35,224.94 L209.35,224.94 L209.35,227.01 L209.35,227.01 L209.35,228.05 L209.35,228.05 L208.31,229.09 L208.31,230.13 L206.23,230.13 L206.23,231.17 L205.19,232.21 L204.16,232.21 L203.12,233.25 L201.04,234.29 L200.00,235.32 L197.92,235.32 L197.92,236.36 L196.88,236.36 L195.84,237.40 L194.81,237.40 L193.77,239.48 L192.73,239.48 L192.73,240.52 L191.69,240.52 L191.69,241.56 L191.69,241.56 L190.65,242.60 L190.65,243.64 L190.65,243.64 L190.65,243.64 L189.61,244.68 L189.61,244.68 L189.61,245.71 L189.61,245.71 L189.61,245.71 L189.61,246.75 L189.61,246.75 L189.61,246.75 L189.61,246.75 L189.61,247.79 L189.61,247.79 L189.61,248.83 L189.61,249.87 L189.61,249.87 L189.61,250.91 L188.57,251.95 L188.57,251.95 L188.57,252.99 L188.57,254.03 L188.57,255.06 L187.53,256.10 L186.49,258.18 L185.45,259.22 L184.42,260.26 L183.38,261.30 L183.38,262.34 L182.34,263.38 L182.34,264.42 L181.30,264.42 L180.26,265.45 L180.26,266.49 L179.22,266.49 L178.18,267.53 L177.14,268.57 L176.10,269.61 L175.06,270.65 L175.06,271.69 L172.99,271.69 L171.95,272.73 L171.95,273.77 L170.91,274.81 L169.87,274.81 L168.83,275.84 L167.79,276.88 L165.71,276.88 L164.68,277.92 L163.64,278.96 L162.60,278.96 L161.56,278.96 L160.52,280.00 L159.48,280.00 L158.44,280.00 L158.44,281.04 L157.40,281.04 L156.36,282.08 L156.36,282.08 L155.32,283.12 L154.29,284.16 L154.29,284.16 L153.25,285.19 L152.21,287.27 L152.21,287.27 L152.21,288.31 L152.21,289.35 L152.21,289.35 L152.21,290.39 L152.21,290.39 L152.21,290.39 L152.21,290.39 L152.21,291.43 L152.21,291.43 L152.21,291.43 L152.21,291.43 L152.21,292.47 L152.21,292.47 L152.21,292.47 L152.21,292.47 L152.21,293.51 L152.21,293.51 L152.21,293.51 L152.21,293.51 L152.21,293.51 L151.17,293.51 L151.17,294.55 L151.17,294.55 L151.17,294.55 L151.17,294.55 L150.13,294.55 L150.13,294.55 L150.13,294.55 L149.09,294.55 L149.09,295.58 L149.09,295.58 L149.09,294.55 L150.13,294.55 L151.17,294.55 L151.17,293.51 L152.21,293.51 L154.29,292.47 L155.32,292.47 L157.40,291.43 L158.44,290.39 L159.48,290.39 L161.56,290.39 L162.60,289.35 L163.64,289.35 L164.68,288.31 L166.75,288.31 L167.79,288.31 L168.83,288.31 L169.87,287.27 L170.91,287.27 L171.95,287.27 L172.99,287.27 L174.03,287.27 L175.06,287.27 L177.14,286.23 L179.22,286.23 L180.26,286.23 L183.38,285.19 L186.49,285.19 L188.57,285.19 L189.61,285.19 L190.65,284.16 L191.69,284.16 L192.73,284.16 L193.77,284.16 L194.81,284.16 L195.84,283.12 L196.88,283.12 L197.92,283.12 L198.96,282.08 L200.00,282.08 L201.04,281.04 L202.08,280.00 L204.16,280.00 L205.19,278.96 L205.19,278.96 L207.27,277.92 L208.31,277.92 L209.35,276.88 L210.39,276.88 L211.43,275.84 L212.47,275.84 L213.51,274.81 L215.58,274.81 L216.62,273.77 L217.66,273.77 L218.70,273.77 L220.78,272.73 L221.82,272.73 L223.90,272.73 L224.94,271.69 L225.97,271.69 L227.01,271.69 L229.09,271.69 L231.17,270.65 L232.21,270.65 L233.25,270.65 L234.29,270.65 L236.36,269.61 L237.40,269.61 L238.44,269.61 L239.48,269.61 L240.52,269.61 L241.56,268.57 L242.60,268.57 L243.64,268.57 L245.71,268.57 L246.75,268.57 L248.83,268.57 L250.91,267.53 L251.95,267.53 L252.99,267.53 L254.03,267.53 L254.03,267.53 L255.06,267.53 L256.10,267.53 L257.14,267.53 L258.18,267.53 L259.22,267.53 L259.22,267.53 L261.30,267.53 L262.34,267.53 L263.38,267.53 L264.42,267.53 L265.45,267.53 L266.49,267.53 L267.53,267.53 L268.57,267.53 L269.61,267.53 L270.65,267.53 L271.69,267.53 L272.73,267.53 L273.77,267.53 L274.81,267.53 L275.84,267.53 L276.88,267.53 L277.92,267.53 L277.92,267.53 L277.92,267.53 L278.96,267.53 L278.96,267.53 L280.00,267.53 L281.04,267.53 L281.04,267.53 L281.04,267.53 L282.08,268.57 L282.08,268.57 L282.08,268.57 L282.08,268.57 L282.08,269.61 L282.08,269.61 L283.12,269.61 L283.12,269.61 L283.12,270.65 L283.12,270.65 L283.12,270.65 L283.12,271.69 L284.16,272.73 L284.16,272.73 L284.16,272.73 L284.16,273.77 L284.16,273.77 L285.19,273.77 L285.19,273.77 L285.19,273.77 L285.19,273.77 L286.23,273.77 L286.23,272.73 L286.23,272.73 L286.23,272.73 L287.27,272.73 L287.27,272.73 L287.27,271.69 L288.31,271.69 L288.31,271.69 L289.35,271.69 L289.35,270.65 L290.39,270.65 L290.39,270.65 L291.43,270.65 L292.47,269.61 L293.51,269.61 L294.55,268.57 L295.58,268.57 L296.62,268.57 L296.62,268.57 L297.66,268.57 L297.66,267.53 L297.66,267.53 L297.66,267.53 L298.70,267.53 L298.70,267.53 L298.70,267.53 L298.70,267.53 L299.74,267.53 L299.74,267.53 L300.78,267.53 L300.78,267.53 L301.82,267.53 L301.82,267.53 L301.82,267.53 L301.82,267.53 L301.82,267.53 L301.82,268.57 L301.82,270.65 L301.82,271.69 L301.82,272.73 L301.82,273.77 L301.82,274.81 L301.82,276.88 L301.82,277.92 L300.78,278.96 L300.78,280.00 L299.74,281.04 L299.74,282.08 L298.70,283.12 L298.70,284.16 L297.66,285.19 L297.66,286.23 L297.66,287.27 L296.62,288.31 L296.62,289.35 L296.62,289.35 L295.58,290.39 L295.58,291.43 L295.58,292.47 L295.58,292.47 L294.55,294.55 L294.55,295.58 L293.51,296.62 L292.47,298.70 L292.47,299.74 L291.43,300.78 L291.43,301.82 L290.39,301.82 L290.39,303.90 L290.39,303.90 L290.39,304.94 L290.39,304.94 L290.39,307.01 L290.39,308.05 L290.39,310.13 L289.35,311.17 L289.35,312.21 L289.35,313.25 L289.35,313.25 L289.35,314.29 L289.35,314.29 L289.35,314.29 L289.35,314.29 L288.31,314.29 L288.31,314.29 L287.27,314.29 L287.27,314.29 L286.23,314.29 L285.19,314.29 L284.16,314.29 L283.12,315.32 L281.04,315.32 L280.00,315.32 L277.92,315.32 L275.84,315.32 L271.69,316.36 L270.65,316.36 L268.57,316.36 L265.45,316.36 L153.25,316.36 L153.25,316.36 L152.21,315.32 L152.21,313.25 L151.17,313.25 L151.17,312.21 L151.17,312.21 L151.17,311.17 L150.13,311.17 L150.13,310.13 L149.09,310.13 L149.09,309.09 L149.09,309.09 L148.05,309.09 L148.05,309.09 L148.05,309.09 L147.01,308.05 L147.01,308.05 L145.97,308.05 L145.97,308.05 L145.97,308.05 L145.97,307.01 L145.97,307.01 L145.97,307.01 L145.97,307.01 L145.97,305.97 L145.97,305.97 L145.97,305.97 L145.97,305.97 L147.01,305.97 L147.01,305.97 L148.05,305.97 L148.05,305.97 L149.09,305.97 L149.09,305.97 L150.13,305.97 L150.13,304.94 L151.17,304.94 L151.17,304.94 L152.21,304.94 L152.21,304.94 L152.21,304.94 L153.25,303.90 L153.25,303.90 L154.29,303.90 L154.29,303.90 L154.29,303.90 L154.29,303.90 L155.32,303.90 L155.32,303.90 L156.36,303.90 L156.36,303.90 L156.36,302.86 L157.40,302.86 L157.40,302.86 L158.44,302.86 L158.44,302.86 L158.44,301.82 L159.48,301.82 L159.48,301.82 L159.48,301.82 L159.48,301.82 L160.52,301.82 L160.52,301.82 L159.48,301.82 L158.44,301.82 L157.40,301.82 L156.36,301.82 L156.36,301.82 L155.32,301.82 L155.32,301.82 L154.29,301.82 L154.29,301.82 L153.25,300.78 L153.25,300.78 L152.21,300.78 L152.21,300.78 L152.21,300.78 L152.21,300.78 L152.21,299.74 L152.21,299.74 L152.21,299.74 L152.21,299.74 L152.21,298.70 L152.21,298.70 L152.21,297.66 L152.21,297.66 L152.21,296.62 L152.21,295.58 L153.25,295.58 L153.25,294.55 L154.29,294.55 L155.32,293.51 L155.32,293.51 L155.32,293.51 L156.36,293.51 L156.36,292.47 L157.40,292.47 L157.40,292.47 L158.44,292.47 L158.44,291.43 L159.48,291.43 L159.48,290.39 L160.52,290.39 L160.52,289.35 L161.56,289.35 L162.60,288.31 L162.60,288.31 L163.64,287.27 L163.64,287.27 L164.68,287.27 L164.68,287.27 L165.71,286.23 L166.75,286.23 L166.75,285.19 L167.79,285.19 L167.79,284.16 L168.83,284.16 L168.83,283.12 L169.87,283.12 L169.87,282.08 L169.87,282.08 L170.91,281.04 L170.91,281.04 L171.95,281.04 L171.95,280.00 L171.95,280.00 L171.95,278.96 L172.99,277.92 L172.99,276.88 L174.03,275.84 L174.03,275.84 L175.06,274.81 L175.06,274.81 L175.06,274.81 L175.06,274.81 L176.10,273.77 L176.10,273.77 L176.10,273.77 L176.10,273.77 L176.10,272.73 L177.14,272.73 L177.14,272.73 L177.14,272.73 L177.14,272.73 L178.18,272.73 L178.18,271.69 L178.18,271.69 L178.18,271.69 L178.18,271.69 L178.18,271.69 L179.22,271.69 L179.22,271.69 L180.26,270.65 L180.26,270.65 L180.26,270.65 L181.30,269.61 L183.38,269.61 L184.42,268.57 L184.42,268.57 L185.45,268.57 L186.49,267.53 L188.57,267.53 L189.61,266.49 L191.69,266.49 L192.73,265.45 L193.77,264.42 L195.84,264.42 L196.88,263.38 L197.92,262.34 L200.00,262.34 L201.04,261.30 L202.08,260.26 L203.12,260.26 L204.16,259.22 L204.16,259.22 L205.19,258.18 L206.23,258.18 L206.23,258.18 L206.23,257.14 L206.23,257.14 L207.27,257.14 L207.27,257.14 L207.27,257.14 L207.27,257.14 L207.27,257.14 L208.31,256.10 L208.31,256.10 L208.31,256.10 L209.35,255.06 L209.35,255.06 L210.39,255.06 L210.39,254.03 L211.43,254.03 L212.47,251.95 L214.55,251.95 L215.58,250.91 L216.62,249.87 L217.66,248.83 L220.78,246.75 L221.82,245.71 L222.86,245.71 L223.90,244.68 L224.94,244.68 L225.97,243.64 L225.97,243.64 L227.01,242.60 L228.05,241.56 L229.09,241.56 L230.13,241.56 L231.17,241.56 L231.17,240.52 L232.21,240.52 L233.25,240.52 L233.25,240.52 L234.29,240.52 L234.29,240.52 L235.32,240.52 L235.32,240.52 L236.36,239.48 L237.40,239.48 L238.44,239.48 L239.48,238.44 L240.52,238.44 L240.52,238.44 L241.56,238.44 L242.60,237.40 L242.60,237.40 L243.64,237.40 L244.68,236.36 L245.71,236.36 L246.75,235.32 L247.79,235.32 L248.83,234.29 L249.87,234.29 L250.91,233.25 L251.95,233.25 L252.99,232.21 L252.99,232.21 L255.06,231.17 L255.06,231.17 L256.10,230.13 L257.14,230.13 L257.14,230.13 L258.18,230.13 L259.22,229.09 L260.26,229.09 L261.30,229.09 L261.30,229.09 L262.34,229.09 L263.38,228.05 L263.38,228.05 L264.42,228.05 L264.42,228.05 L265.45,228.05 L265.45,228.05 L266.49,228.05 L266.49,228.05 L267.53,228.05 L268.57,227.01 L268.57,227.01 L269.61,227.01 L270.65,225.97 L270.65,225.97 L271.69,225.97 L272.73,224.94 L273.77,223.90 L274.81,222.86 L275.84,222.86 L276.88,221.82 L277.92,220.78 L278.96,219.74 L280.00,219.74 L281.04,218.70 L282.08,218.70 L282.08,217.66 L283.12,217.66 L284.16,216.62 L284.16,216.62 L285.19,216.62 L286.23,215.58 L286.23,215.58 L287.27,215.58 L287.27,215.58 L288.31,215.58 L288.31,215.58 L289.35,214.55 L289.35,214.55 L290.39,214.55 L290.39,214.55 L290.39,214.55 L291.43,214.55 L291.43,214.55 L292.47,213.51 L293.51,213.51 L293.51,212.47 L294.55,212.47 L295.58,212.47 L296.62,211.43 L297.66,210.39 L298.70,210.39 L299.74,209.35 L300.78,208.31 L301.82,207.27 L302.86,207.27 L303.90,206.23 L303.90,206.23 L304.94,206.23 L304.94,206.23 L304.94,206.23 L305.97,205.19 L305.97,205.19 L305.97,205.19 L305.97,205.19 L307.01,204.16 L307.01,204.16 L308.05,203.12 L309.09,202.08 L311.17,200.00 L312.21,198.96 L313.25,196.88 L315.32,195.84 L316.36,193.77 L317.40,191.69 L319.48,190.65 L320.52,189.61 L321.56,187.53 L322.60,187.53 L322.60,186.49 L323.64,185.45 L324.68,185.45 L324.68,184.42 L325.71,184.42 L326.75,183.38 L326.75,183.38 L327.79,183.38 L327.79,183.38 L327.79,183.38 L328.83,182.34 L328.83,182.34 L329.87,182.34 L330.91,182.34 L330.91,182.34 L331.95,181.30 L332.99,181.30 L334.03,180.26 L335.06,180.26 L336.10,180.26 L337.14,179.22 L338.18,179.22 L339.22,178.18 L339.22,178.18 L340.26,177.14 L341.30,176.10 L342.34,174.03 L344.42,172.99 L345.45,170.91 L346.49,169.87 L347.53,167.79 L348.57,165.71 L349.61,163.64 L350.65,162.60 L350.65,161.56 L351.69,160.52 L351.69,159.48 L351.69,158.44 L352.73,158.44 L352.73,157.40 L352.73,157.40 L352.73,157.40 L353.77,156.36 L353.77,156.36 L353.77,156.36 L353.77,156.36 L353.77,156.36 L353.77,155.32 L354.81,154.29 L354.81,153.25 L354.81,153.25 L354.81,152.21 L354.81,151.17 L355.84,151.17 L355.84,150.13 L355.84,150.13 L355.84,149.09 L355.84,149.09 L355.84,148.05 L355.84,148.05 L355.84,147.01 L356.88,147.01 L356.88,147.01 L356.88,145.97 L356.88,145.97 L356.88,145.97 L356.88,145.97 L356.88,145.97 L356.88,144.94 L357.92,143.90 L357.92,143.90 L357.92,142.86 L358.96,141.82 L358.96,140.78 L358.96,139.74 L358.96,138.70 L360.00,137.66 L360.00,137.66 L360.00,136.62 L360.00,135.58 L360.00,135.58 L360.00,134.55 L360.00,133.51 L360.00,131.43 L360.00,130.39 L360.00,129.35 L360.00,127.27 L360.00,126.23 L360.00,125.19 L360.00,124.16 L360.00,123.12 L360.00,123.12 L360.00,123.12 L360.00,122.08 L360.00,121.04 L360.00,121.04 L360.00,121.04 L360.00,120.00 L360.00,120.00 L360.00,120.00 L360.00,120.00 L360.00,118.96 L360.00,117.92 L358.96,116.88 L358.96,114.81 L358.96,112.73 L357.92,109.61 L357.92,107.53 L357.92,104.42 L356.88,102.34 L356.88,100.26 L356.88,98.18 L356.88,96.10 L356.88,94.03 L356.88,91.95 L355.84,90.91 L355.84,89.87 L355.84,88.83 L355.84,87.79 L355.84,86.75 L355.84,86.75 L354.81,85.71 L354.81,85.71 L354.81,85.71 L354.81,84.68 L354.81,84.68 L354.81,84.68 L353.77,84.68 L353.77,84.68 L353.77,84.68 L353.77,84.68 L353.77,84.68 L352.73,83.64 L351.69,83.64 L351.69,83.64 L351.69,83.64 L351.69,83.64 L350.65,83.64 L350.65,83.64 L349.61,83.64 L349.61,83.64 L348.57,83.64 L347.53,83.64 L347.53,83.64 L346.49,83.64 L345.45,83.64 L345.45,83.64 L344.42,83.64 L343.38,83.64 L343.38,83.64 L342.34,83.64 L341.30,83.64 L341.30,83.64 L340.26,83.64 L339.22,83.64 L339.22,83.64 L338.18,83.64 L338.18,83.64 L338.18,83.64 L337.14,83.64 L337.14,83.64 L336.10,83.64 L336.10,83.64 L336.10,83.64 L335.06,83.64 L335.06,83.64 L335.06,83.64 L334.03,83.64 L334.03,83.64 L332.99,83.64 L332.99,83.64 L332.99,83.64 L331.95,83.64 L330.91,83.64 L329.87,83.64 L328.83,84.68 L328.83,84.68 L327.79,84.68 L326.75,84.68 L326.75,84.68 L325.71,85.71 L324.68,85.71 L324.68,85.71 L323.64,85.71 L323.64,85.71 L323.64,85.71 L323.64,85.71 L322.60,86.75 L322.60,86.75 L322.60,86.75 L322.60,86.75 L321.56,86.75 L320.52,86.75 L320.52,87.79 L319.48,87.79 L318.44,88.83 L317.40,88.83 L315.32,90.91 L314.29,91.95 L311.17,95.06 L310.13,96.10 L307.01,100.26 L304.94,103.38 L302.86,106.49 L299.74,111.69 L296.62,114.81 L295.58,116.88 L292.47,121.04 L290.39,123.12 L289.35,126.23 L287.27,128.31 L285.19,130.39 L283.12,132.47 L281.04,135.58 L281.04,136.62 L278.96,139.74 L277.92,141.82 L275.84,142.86 L274.81,144.94 L274.81,145.97 L273.77,148.05 L272.73,149.09 L272.73,150.13 L272.73,151.17 L272.73,151.17 L272.73,151.17 L272.73,152.21 L272.73,152.21 L271.69,153.25 L271.69,154.29 L271.69,154.29 L270.65,155.32 L270.65,156.36 L268.57,157.40 L267.53,159.48 L266.49,160.52 L264.42,162.60 L263.38,163.64 L262.34,165.71 L260.26,166.75 L259.22,167.79 L257.14,169.87 L256.10,170.91 L255.06,171.95 L251.95,174.03 L251.95,174.03 L250.91,175.06 L248.83,176.10 L248.83,177.14 L247.79,178.18 L246.75,178.18 L246.75,179.22 L245.71,179.22 L245.71,179.22 L245.71,179.22 L245.71,180.26 L245.71,180.26 L245.71,180.26 L244.68,180.26 L244.68,181.30 L244.68,181.30 L243.64,182.34 L243.64,183.38 L242.60,183.38 L242.60,185.45 L241.56,186.49 L241.56,187.53 L240.52,188.57 L239.48,189.61 L238.44,190.65 L237.40,192.73 L236.36,193.77 L235.32,194.81 L234.29,195.84 L233.25,197.92 L233.25,197.92 L231.17,200.00 L231.17,201.04 L230.13,202.08 L229.09,203.12 L228.05,204.16 L227.01,205.19 L225.97,206.23 L225.97,207.27 L224.94,208.31 L223.90,209.35 L223.90,209.35 L222.86,210.39 L222.86,210.39 L222.86,211.43 L222.86,211.43 L222.86,211.43 L222.86,211.43 L221.82,212.47 L221.82,212.47 L221.82,213.51 L220.78,214.55 L218.70,215.58 L217.66,217.66 L216.62,218.70 L215.58,218.70 L214.55,219.74 L213.51,219.74 L213.51,219.74 L212.47,220.78 L211.43,220.78 L211.43,220.78 L210.39,221.82 L210.39,221.82 L209.35,221.82 L209.35,221.82 L209.35,221.82 L209.35,221.82 L209.35,222.86 L208.31,222.86 L208.31,222.86 L208.31,222.86 L208.31,222.86 L207.27,222.86 L207.27,223.90 L206.23,223.90 L206.23,223.90 L205.19,224.94 L205.19,224.94 L205.19,224.94 L205.19,224.94 L205.19,223.90 L205.19,222.86 L205.19,222.86 L205.19,221.82 L205.19,221.82 L205.19,221.82 L205.19,220.78 L205.19,220.78 L205.19,220.78 L206.23,220.78 L206.23,219.74 L206.23,219.74 L207.27,218.70 L207.27,217.66 L208.31,216.62 L209.35,215.58 L211.43,214.55 L212.47,213.51 L213.51,211.43 L214.55,210.39 L215.58,209.35 L215.58,209.35 L216.62,208.31 L216.62,207.27 L217.66,207.27 L217.66,206.23 L217.66,205.19 L217.66,205.19 L217.66,203.12 L218.70,203.12 L218.70,202.08 L218.70,201.04 L218.70,200.00 L218.70,198.96 L218.70,198.96 L219.74,197.92 L219.74,197.92 L220.78,196.88 L221.82,196.88 L221.82,195.84 L222.86,195.84 L223.90,194.81 L224.94,193.77 L224.94,193.77 L225.97,192.73 L227.01,191.69 L227.01,190.65 L228.05,190.65 L228.05,189.61 L228.05,188.57 L229.09,187.53 L229.09,187.53 L230.13,185.45 L230.13,185.45 L231.17,184.42 L232.21,182.34 L233.25,182.34 L233.25,181.30 L234.29,181.30 L234.29,180.26 L235.32,180.26 L235.32,180.26 L236.36,179.22 L236.36,179.22 L237.40,178.18 L237.40,178.18 L238.44,178.18 L238.44,178.18 L238.44,177.14 L238.44,177.14 L239.48,177.14 L239.48,177.14 L239.48,177.14 L239.48,176.10 L240.52,176.10 L240.52,175.06 L241.56,175.06 L242.60,174.03 L242.60,174.03 L243.64,174.03 L244.68,174.03 L244.68,172.99 L244.68,172.99 L245.71,172.99 L245.71,172.99 L246.75,172.99 L246.75,171.95 L247.79,171.95 L247.79,170.91 L248.83,170.91 L248.83,169.87 L249.87,169.87 L249.87,168.83 L250.91,168.83 L250.91,167.79 L251.95,167.79 L251.95,166.75 L252.99,166.75 L252.99,166.75 L252.99,166.75 L252.99,166.75 L252.99,166.75 L252.99,165.71 L254.03,165.71 L254.03,165.71 L254.03,165.71 L254.03,164.68 L255.06,164.68 L255.06,164.68 L256.10,163.64 L256.10,162.60 L256.10,162.60 L257.14,161.56 L258.18,160.52 L258.18,159.48 L259.22,157.40 L261.30,154.29 L262.34,151.17 L263.38,147.01 L264.42,143.90 L264.42,142.86 L264.42,141.82 L265.45,140.78 L266.49,138.70 L266.49,137.66 L266.49,137.66 L267.53,135.58 L267.53,134.55 L269.61,133.51 L270.65,131.43 L271.69,130.39 L273.77,129.35 L274.81,128.31 L274.81,128.31 L275.84,128.31 L275.84,127.27 L275.84,127.27 L276.88,126.23 L277.92,126.23 L277.92,126.23 L278.96,126.23 L278.96,125.19 L278.96,125.19 L280.00,124.16 L280.00,124.16 L280.00,124.16 L281.04,123.12 L281.04,123.12 L282.08,123.12 L282.08,123.12 L283.12,123.12 L283.12,123.12 L284.16,123.12 L285.19,122.08 L285.19,122.08 L287.27,122.08 L287.27,122.08 L288.31,121.04 L289.35,121.04 L289.35,121.04 L289.35,121.04 L289.35,121.04 L290.39,121.04 L290.39,121.04 L291.43,121.04 L291.43,121.04 L291.43,121.04 L292.47,121.04 L293.51,121.04 L293.51,121.04 L294.55,121.04 L294.55,121.04 L294.55,121.04 L295.58,121.04 L295.58,121.04 L295.58,121.04 L295.58,121.04 L295.58,121.04 L297.66,121.04 L297.66,122.08 L298.70,123.12 L299.74,123.12 L299.74,124.16 L300.78,125.19 L301.82,126.23 L301.82,127.27 L302.86,128.31 L303.90,130.39 L303.90,131.43 L304.94,133.51 L305.97,134.55 L307.01,135.58 L308.05,137.66 L308.05,138.70 L309.09,140.78 L310.13,141.82 L311.17,143.90 L311.17,144.94 L312.21,145.97 L313.25,148.05 L313.25,150.13 L314.29,151.17 L314.29,151.17 L314.29,152.21 L315.32,153.25 L315.32,153.25 L316.36,153.25 L316.36,153.25 L317.40,153.25 L317.40,154.29 L318.44,154.29 L318.44,155.32 L319.48,155.32 L320.52,155.32 L321.56,156.36 L321.56,156.36 L322.60,156.36 L322.60,156.36 L322.60,156.36 L323.64,156.36 L323.64,156.36 L323.64,156.36 L324.68,156.36 L324.68,156.36 L324.68,156.36 L324.68,156.36 L325.71,156.36 L325.71,156.36 L325.71,156.36 L325.71,156.36 L326.75,156.36 L326.75,156.36 L326.75,156.36 L326.75,157.40 L326.75,157.40 L327.79,157.40 L327.79,157.40 L327.79,158.44 L327.79,158.44 L328.83,158.44 L328.83,159.48 L328.83,159.48 L328.83,160.52 L328.83,160.52 L329.87,160.52 L329.87,161.56 L329.87,161.56 L329.87,161.56 L330.91,162.60 L330.91,162.60 L330.91,162.60 L330.91,163.64 L331.95,163.64 L331.95,163.64 L331.95,163.64 L331.95,163.64 L332.99,163.64 L332.99,164.68 L332.99,164.68 L332.99,164.68 L332.99,164.68 L332.99,164.68 L332.99,164.68 L332.99,165.71 L332.99,165.71 L332.99,166.75 L332.99,167.79 L332.99,167.79 L332.99,167.79 L332.99,167.79 L332.99,168.83 L332.99,168.83 L332.99,168.83 L332.99,169.87 L332.99,169.87 L332.99,169.87 L332.99,170.91 L332.99,170.91 L332.99,170.91 L332.99,171.95 L332.99,171.95 L332.99,171.95 L332.99,171.95 L332.99,171.95 L332.99,171.95 L332.99,170.91 L332.99,170.91 L332.99,170.91 L332.99,169.87 L332.99,169.87 L332.99,169.87 L332.99,169.87 L332.99,168.83 L332.99,168.83 L331.95,168.83 L331.95,168.83 L331.95,167.79 L331.95,167.79 L331.95,167.79 L330.91,167.79 L330.91,167.79 L330.91,167.79 L330.91,166.75 L329.87,166.75 L329.87,166.75 L329.87,166.75 L329.87,166.75 L328.83,166.75 L328.83,165.71 L328.83,165.71 L327.79,164.68 L327.79,164.68 L327.79,163.64 L326.75,162.60 L326.75,161.56 L325.71,161.56 L325.71,159.48 L324.68,157.40 L323.64,156.36 L323.64,155.32 L323.64,155.32 L323.64,154.29 L322.60,154.29 L322.60,153.25 L322.60,153.25 L322.60,153.25 L322.60,153.25 L321.56,152.21 L321.56,152.21 L321.56,152.21 L321.56,152.21 L321.56,151.17 L320.52,151.17 L320.52,151.17 L320.52,151.17 L320.52,150.13 L319.48,150.13 L319.48,150.13 L318.44,150.13 L318.44,149.09 L317.40,149.09 L317.40,149.09 L316.36,148.05 L316.36,148.05 L316.36,148.05 L315.32,148.05 L314.29,147.01 L314.29,147.01 L313.25,145.97 L313.25,145.97 L312.21,145.97 L312.21,145.97 L312.21,145.97 L311.17,144.94 L311.17,144.94 L310.13,144.94 L310.13,143.90 L310.13,143.90 L309.09,143.90 L309.09,143.90 L309.09,143.90 L308.05,142.86 L307.01,142.86 L307.01,141.82 L305.97,141.82 L305.97,141.82 L304.94,141.82 L304.94,141.82 L304.94,141.82 L303.90,141.82 L303.90,140.78 L303.90,140.78 L303.90,140.78 L303.90,140.78 L303.90,139.74 L303.90,139.74 L303.90,139.74 L302.86,138.70 L302.86,138.70 L302.86,137.66 L301.82,137.66 L301.82,136.62 L301.82,136.62 L301.82,135.58 L300.78,135.58 L300.78,134.55 L299.74,133.51 L299.74,132.47 L298.70,131.43 L298.70,131.43 L298.70,131.43 L297.66,130.39 L297.66,129.35 L297.66,129.35 L297.66,128.31 L296.62,128.31 L296.62,127.27 L295.58,127.27 L295.58,126.23 L294.55,126.23 L294.55,125.19 L294.55,125.19 L294.55,124.16 L293.51,123.12 L293.51,123.12 L293.51,122.08 L293.51,121.04 L293.51,121.04 L293.51,120.00 L293.51,120.00 L292.47,120.00 L292.47,120.00 L292.47,118.96 L292.47,118.96 L293.51,118.96 L293.51,117.92 L293.51,117.92 L293.51,116.88 L293.51,116.88 L294.55,116.88 L294.55,116.88 L294.55,115.84 L294.55,115.84 L293.51,115.84 L293.51,116.88 L293.51,116.88 L292.47,117.92 L292.47,117.92 L291.43,117.92 L291.43,117.92 L291.43,117.92 L290.39,118.96 L288.31,120.00 L285.19,124.16 L284.16,126.23 L282.08,130.39 L280.00,134.55 L277.92,138.70 L276.88,141.82 L275.84,144.94 L274.81,148.05 L273.77,150.13 L271.69,152.21 L271.69,154.29 L268.57,158.44 L267.53,160.52 L266.49,161.56 L264.42,164.68 L263.38,167.79 L263.38,169.87 L262.34,171.95 L262.34,174.03 L262.34,177.14 L261.30,179.22 L261.30,182.34 L260.26,185.45 L259.22,187.53 L258.18,191.69 L257.14,193.77 L256.10,195.84 L255.06,200.00 L254.03,202.08 L252.99,204.16 L251.95,206.23 L250.91,207.27 L249.87,209.35 L248.83,209.35 L247.79,210.39 L247.79,211.43 L246.75,212.47 L243.64,213.51 L240.52,214.55 L237.40,215.58 L236.36,215.58 L233.25,215.58 L231.17,216.62 L228.05,217.66 L227.01,218.70 L223.90,218.70 L221.82,219.74 L218.70,219.74 L216.62,220.78 L214.55,220.78 L212.47,221.82 L209.35,221.82 L207.27,222.86 L206.23,222.86 L204.16,222.86 L202.08,223.90 L201.04,224.94 L200.00,224.94 L198.96,224.94 L197.92,225.97 L197.92,225.97 L196.88,227.01 L195.84,228.05 L195.84,228.05 L194.81,229.09 L194.81,229.09 L194.81,229.09 L193.77,229.09 L193.77,230.13 L193.77,230.13 L193.77,231.17 L193.77,231.17 L193.77,232.21 L192.73,232.21 L192.73,232.21 L192.73,233.25 L192.73,233.25 L192.73,234.29 L192.73,235.32 L191.69,236.36 L191.69,237.40 L190.65,238.44 L189.61,240.52 L188.57,243.64 L187.53,247.79 L186.49,248.83 L186.49,249.87 L185.45,251.95 L185.45,252.99 L184.42,254.03 L184.42,255.06 L183.38,256.10 L183.38,257.14 L183.38,258.18 L183.38,258.18 L183.38,259.22 L183.38,259.22 L182.34,260.26 L182.34,262.34 L181.30,264.42 L180.26,265.45 L180.26,266.49 L180.26,267.53 L179.22,269.61 L179.22,269.61 L178.18,270.65 L177.14,273.77 L175.06,274.81 L175.06,275.84 L174.03,276.88 L172.99,276.88 L171.95,278.96 L170.91,278.96 L169.87,281.04 L168.83,281.04 L166.75,283.12 L165.71,284.16 L164.68,285.19 L163.64,285.19 L162.60,287.27 L162.60,287.27 L161.56,288.31 L160.52,289.35 L160.52,289.35 L160.52,290.39 L159.48,291.43 L159.48,291.43 L158.44,292.47 L158.44,293.51 L157.40,294.55 L157.40,294.55 L156.36,295.58 L156.36,296.62 L155.32,297.66 L154.29,299.74 L153.25,299.74 L152.21,300.78 L151.17,302.86 L150.13,303.90 L150.13,304.94 L149.09,305.97 L149.09,307.01 L148.05,307.01 L148.05,308.05 L148.05,309.09 L148.05,310.13 L147.01,310.13 L147.01,311.17 L147.01,312.21 L145.97,313.25 L145.97,314.29 L145.97,315.32" stroke="#101411" stroke-width="19.7" id="path-00"/>
</svg>